<?xml version="1.0" ?><svg height="297.000000mm" version="1.0" viewBox="0 0 794 1123" width="210.000000mm" xmlns="http://www.w3.org/2000/svg">
  <g font-family="Helvetica" font-size="12pt" stroke-linecap="round">
    <g stroke="#000000" stroke-linecap="butt" stroke-width="1.0">
      <line x1="230.00" x2="241.00" y1="37.00" y2="37.00"/>
    </g>
    <text fill="#000000" font-family="helvetica" font-size="12pt" x="216.30" y="40.00">R</text>
    <text fill="#000000" font-family="helvetica" font-size="12pt" x="242.30" y="40.00">OH</text>
    <g stroke="#000000" stroke-linecap="butt" stroke-width="1.0">
      <line x1="243.00" x2="243.00" y1="92.00" y2="100.00"/>
      <line x1="239.00" x2="239.00" y1="92.00" y2="100.00"/>
    </g>
    <g stroke="#000000" stroke-linecap="butt" stroke-width="1.0">
      <line x1="233.00" x2="226.00" y1="115.11" y2="119.15"/>
    </g>
    <g stroke="#000000" stroke-linecap="butt" stroke-width="1.0">
      <line x1="249.00" x2="256.00" y1="115.11" y2="119.15"/>
    </g>
    <text fill="#000000" font-family="helvetica" font-size="12pt" x="234.30" y="113.49">C</text>
    <text fill="#000000" font-family="helvetica" font-size="12pt" x="234.30" y="87.00">O</text>
    <text fill="#000000" font-family="helvetica" font-size="12pt" x="212.30" y="126.73">R</text>
    <text fill="#000000" font-family="helvetica" font-size="12pt" x="257.30" y="126.73">H</text>
    <g stroke="#000000" stroke-linecap="butt" stroke-width="1.0">
      <line x1="236.00" x2="246.00" y1="197.00" y2="197.00"/>
      <line x1="236.00" x2="246.00" y1="201.00" y2="201.00"/>
    </g>
    <g stroke="#000000" stroke-linecap="butt" stroke-width="1.0">
      <line x1="222.23" x2="219.34" y1="189.00" y2="184.00"/>
    </g>
    <g stroke="#000000" stroke-linecap="butt" stroke-width="1.0">
      <line x1="260.26" x2="263.15" y1="189.00" y2="184.00"/>
    </g>
    <g stroke="#000000" stroke-linecap="butt" stroke-width="1.0">
      <line x1="259.11" x2="262.00" y1="207.00" y2="212.00"/>
    </g>
    <g stroke="#000000" stroke-linecap="butt" stroke-width="1.0">
      <line x1="223.38" x2="220.49" y1="207.00" y2="212.00"/>
    </g>
    <text fill="#000000" font-family="helvetica" font-size="12pt" x="221.30" y="202.00">C</text>
    <text fill="#000000" font-family="helvetica" font-size="12pt" x="247.30" y="202.00">C</text>
    <text fill="#000000" font-family="helvetica" font-size="12pt" x="261.30" y="179.06">R</text>
    <text fill="#000000" font-family="helvetica" font-size="12pt" x="261.30" y="224.94">R</text>
    <text fill="#000000" font-family="helvetica" font-size="12pt" x="208.30" y="179.06">R</text>
    <text fill="#000000" font-family="helvetica" font-size="12pt" x="208.30" y="224.94">R</text>
    <g stroke="#000000" stroke-linecap="butt" stroke-width="1.0">
      <line x1="234.00" x2="244.00" y1="280.00" y2="280.00"/>
      <line x1="235.25" x2="242.75" y1="275.50" y2="275.50"/>
      <line x1="235.25" x2="242.75" y1="284.50" y2="284.50"/>
    </g>
    <g stroke="#000000" stroke-linecap="butt" stroke-width="1.0">
      <line x1="218.00" x2="207.00" y1="280.00" y2="280.00"/>
    </g>
    <g stroke="#000000" stroke-linecap="butt" stroke-width="1.0">
      <line x1="260.00" x2="271.00" y1="280.00" y2="280.00"/>
    </g>
    <text fill="#000000" font-family="helvetica" font-size="12pt" x="219.30" y="283.00">C</text>
    <text fill="#000000" font-family="helvetica" font-size="12pt" x="245.30" y="283.00">C</text>
    <text fill="#000000" font-family="helvetica" font-size="12pt" x="272.30" y="283.00">R</text>
    <text fill="#000000" font-family="helvetica" font-size="12pt" x="193.30" y="283.00">R</text>
    <g stroke="#000000" stroke-linecap="butt" stroke-width="1.0">
      <line x1="237.00" x2="237.00" y1="335.00" y2="343.00"/>
      <line x1="233.00" x2="233.00" y1="335.00" y2="343.00"/>
    </g>
    <g stroke="#000000" stroke-linecap="butt" stroke-width="1.0">
      <line x1="227.00" x2="220.00" y1="358.11" y2="362.15"/>
    </g>
    <g stroke="#000000" stroke-linecap="butt" stroke-width="1.0">
      <line x1="257.94" x2="257.94" y1="375.00" y2="383.00"/>
    </g>
    <g stroke="#000000" stroke-linecap="butt" stroke-width="1.0">
      <line x1="243.00" x2="250.00" y1="358.11" y2="362.15"/>
    </g>
    <g stroke="#000000" stroke-linecap="butt" stroke-width="1.0">
      <line x1="265.00" x2="273.00" y1="362.66" y2="358.04"/>
    </g>
    <text fill="#000000" font-family="helvetica" font-size="12pt" x="228.30" y="356.49">C</text>
    <text fill="#000000" font-family="helvetica" font-size="12pt" x="251.30" y="369.73">N</text>
    <text fill="#000000" font-family="helvetica" font-size="12pt" x="228.30" y="330.00">O</text>
    <text fill="#000000" font-family="helvetica" font-size="12pt" x="206.30" y="369.73">R</text>
    <text fill="#000000" font-family="helvetica" font-size="12pt" x="274.30" y="356.49">R</text>
    <text fill="#000000" font-family="helvetica" font-size="12pt" x="251.30" y="396.22">R</text>
    <g stroke="#000000" stroke-linecap="butt" stroke-width="1.0">
      <line x1="227.00" x2="238.00" y1="457.00" y2="457.00"/>
    </g>
    <g stroke="#000000" stroke-linecap="butt" stroke-width="1.0">
      <line x1="250.11" x2="253.00" y1="465.00" y2="470.00"/>
    </g>
    <g stroke="#000000" stroke-linecap="butt" stroke-width="1.0">
      <line x1="251.26" x2="254.15" y1="447.00" y2="442.00"/>
    </g>
    <text fill="#000000" font-family="helvetica" font-size="12pt" x="239.30" y="460.00">N</text>
    <text fill="#000000" font-family="helvetica" font-size="12pt" x="213.30" y="460.00">R</text>
    <text fill="#000000" font-family="helvetica" font-size="12pt" x="252.30" y="437.06">R</text>
    <text fill="#000000" font-family="helvetica" font-size="12pt" x="252.30" y="482.94">R</text>
    <g stroke="#000000" stroke-width="1.0">
      <line x1="592.07" x2="615.00" y1="18.75" y2="32.00"/>
      <line x1="591.93" x2="609.13" y1="25.60" y2="35.54"/>
    </g>
    <g stroke="#000000" stroke-width="1.0">
      <line x1="569.13" x2="592.07" y1="32.00" y2="18.75"/>
    </g>
    <g stroke="#000000" stroke-width="1.0">
      <line x1="569.13" x2="569.13" y1="32.00" y2="58.45"/>
      <line x1="575.13" x2="575.13" y1="35.31" y2="55.14"/>
    </g>
    <g stroke="#000000" stroke-width="1.0">
      <line x1="615.00" x2="615.00" y1="32.00" y2="58.45"/>
    </g>
    <g stroke="#000000" stroke-width="1.0">
      <line x1="569.13" x2="592.07" y1="58.45" y2="71.70"/>
    </g>
    <g stroke="#000000" stroke-width="1.0">
      <line x1="615.00" x2="592.07" y1="58.45" y2="71.70"/>
      <line x1="609.13" x2="591.93" y1="54.91" y2="64.85"/>
    </g>
    <g stroke="#000000" stroke-linecap="butt" stroke-width="1.0">
      <line x1="595.00" x2="595.00" y1="115.00" y2="123.00"/>
      <line x1="591.00" x2="591.00" y1="115.00" y2="123.00"/>
    </g>
    <g stroke="#000000" stroke-linecap="butt" stroke-width="1.0">
      <line x1="585.00" x2="578.00" y1="138.11" y2="142.15"/>
    </g>
    <g stroke="#000000" stroke-linecap="butt" stroke-width="1.0">
      <line x1="601.00" x2="608.00" y1="138.11" y2="142.15"/>
    </g>
    <text fill="#000000" font-family="helvetica" font-size="12pt" x="586.30" y="136.49">C</text>
    <text fill="#000000" font-family="helvetica" font-size="12pt" x="586.30" y="110.00">O</text>
    <text fill="#000000" font-family="helvetica" font-size="12pt" x="564.30" y="149.73">R</text>
    <text fill="#000000" font-family="helvetica" font-size="12pt" x="609.30" y="149.73">OH</text>
    <g stroke="#000000" stroke-linecap="butt" stroke-width="1.0">
      <line x1="593.00" x2="593.00" y1="206.00" y2="214.00"/>
      <line x1="589.00" x2="589.00" y1="206.00" y2="214.00"/>
    </g>
    <g stroke="#000000" stroke-linecap="butt" stroke-width="1.0">
      <line x1="583.00" x2="576.00" y1="229.11" y2="233.15"/>
    </g>
    <g stroke="#000000" stroke-linecap="butt" stroke-width="1.0">
      <line x1="599.00" x2="606.00" y1="229.11" y2="233.15"/>
    </g>
    <g stroke="#000000" stroke-linecap="butt" stroke-width="1.0">
      <line x1="622.00" x2="629.00" y1="233.08" y2="229.04"/>
    </g>
    <text fill="#000000" font-family="helvetica" font-size="12pt" x="584.30" y="227.49">C</text>
    <text fill="#000000" font-family="helvetica" font-size="12pt" x="584.30" y="201.00">O</text>
    <text fill="#000000" font-family="helvetica" font-size="12pt" x="607.30" y="240.73">O</text>
    <text fill="#000000" font-family="helvetica" font-size="12pt" x="562.30" y="240.73">R</text>
    <text fill="#000000" font-family="helvetica" font-size="12pt" x="630.30" y="227.49">R</text>
    <g stroke="#000000" stroke-linecap="butt" stroke-width="1.0">
      <line x1="577.00" x2="587.00" y1="299.00" y2="299.00"/>
    </g>
    <g stroke="#000000" stroke-linecap="butt" stroke-width="1.0">
      <line x1="603.00" x2="614.00" y1="299.00" y2="299.00"/>
    </g>
    <text fill="#000000" font-family="helvetica" font-size="12pt" x="588.30" y="302.00">O</text>
    <text fill="#000000" font-family="helvetica" font-size="12pt" x="563.30" y="302.00">R</text>
    <text fill="#000000" font-family="helvetica" font-size="12pt" x="615.30" y="302.00">R</text>
    <g stroke="#000000" stroke-linecap="butt" stroke-width="1.0">
      <line x1="597.00" x2="597.00" y1="349.00" y2="357.00"/>
      <line x1="593.00" x2="593.00" y1="349.00" y2="357.00"/>
    </g>
    <g stroke="#000000" stroke-linecap="butt" stroke-width="1.0">
      <line x1="587.00" x2="580.00" y1="372.11" y2="376.15"/>
    </g>
    <g stroke="#000000" stroke-linecap="butt" stroke-width="1.0">
      <line x1="603.00" x2="610.00" y1="372.11" y2="376.15"/>
    </g>
    <text fill="#000000" font-family="helvetica" font-size="12pt" x="588.30" y="370.49">C</text>
    <text fill="#000000" font-family="helvetica" font-size="12pt" x="588.30" y="344.00">O</text>
    <text fill="#000000" font-family="helvetica" font-size="12pt" x="566.30" y="383.73">R</text>
    <text fill="#000000" font-family="helvetica" font-size="12pt" x="611.30" y="383.73">R</text>
    <g stroke="#000000" stroke-linecap="butt" stroke-width="1.0">
      <line x1="605.00" x2="616.00" y1="433.00" y2="433.00"/>
      <line x1="606.38" x2="614.63" y1="428.50" y2="428.50"/>
      <line x1="606.38" x2="614.63" y1="437.50" y2="437.50"/>
    </g>
    <g stroke="#000000" stroke-linecap="butt" stroke-width="1.0">
      <line x1="589.00" x2="578.00" y1="433.00" y2="433.00"/>
    </g>
    <text fill="#000000" font-family="helvetica" font-size="12pt" x="590.30" y="436.00">C</text>
    <text fill="#000000" font-family="helvetica" font-size="12pt" x="617.30" y="436.00">N</text>
    <text fill="#000000" font-family="helvetica" font-size="12pt" x="564.30" y="436.00">R</text>
    <g stroke="#000000" stroke-linecap="butt" stroke-width="1.0">
      <line x1="579.00" x2="590.00" y1="478.00" y2="478.00"/>
    </g>
    <text fill="#000000" font-family="helvetica" font-size="12pt" x="591.30" y="481.00">SH</text>
    <text fill="#000000" font-family="helvetica" font-size="12pt" x="565.30" y="481.00">R</text>
    <text fill="#000000" font-family="helvetica" font-size="12pt" textLength="51" x="84.00" y="43.50"><tspan>Alcohol</tspan></text>
    <text fill="#000000" font-family="helvetica" font-size="12pt" textLength="65" x="79.00" y="125.50"><tspan>Aldehyde</tspan></text>
    <text fill="#000000" font-family="helvetica" font-size="12pt" textLength="48" x="87.00" y="202.50"><tspan>Alkene</tspan></text>
    <text fill="#000000" font-family="helvetica" font-size="12pt" textLength="46" x="89.00" y="281.50"><tspan>Alkyne</tspan></text>
    <text fill="#000000" font-family="helvetica" font-size="12pt" textLength="46" x="89.00" y="367.50"><tspan>Amide</tspan></text>
    <text fill="#000000" font-family="helvetica" font-size="12pt" textLength="45" x="93.00" y="458.50"><tspan>Amine</tspan></text>
    <text fill="#000000" font-family="helvetica" font-size="12pt" textLength="63" x="411.00" y="54.50"><tspan>Aromatic</tspan></text>
    <text fill="#000000" font-family="helvetica" font-size="12pt" textLength="109" x="390.00" y="141.50"><tspan>Carboxylic Acid</tspan></text>
    <text fill="#000000" font-family="helvetica" font-size="12pt" textLength="37" x="426.00" y="230.50"><tspan>Ester</tspan></text>
    <text fill="#000000" font-family="helvetica" font-size="12pt" textLength="37" x="429.00" y="304.50"><tspan>Ether</tspan></text>
    <text fill="#000000" font-family="helvetica" font-size="12pt" textLength="50" x="426.00" y="370.50"><tspan>Ketone</tspan></text>
    <text fill="#000000" font-family="helvetica" font-size="12pt" textLength="40" x="430.00" y="435.50"><tspan>Nitrile</tspan></text>
    <text fill="#000000" font-family="helvetica" font-size="12pt" textLength="33" x="434.00" y="484.50"><tspan>Thiol</tspan></text>
  </g>
</svg>